# xmcd CD database file
#
# Track frame offsets:
#	150
#	28533
#	56325
#	77136
#	97791
#	122664
#	146955
#	168630
#	189675
#	222360
#	236616
#
# Disc length: 3496 seconds
#
# Revision: 2
# Processed by: cddbd v1.5.2PL0 Copyright (c) Steve Scherf et al.
# Submitted via: CDex 1.70beta2
#
DISCID=970da60b
DTITLE=ALiCE'S EMOTiON vs Cis-Trance - FANATIC HARDCORE BLACK LABEL
DYEAR=2008
DGENRE=Techno
TTITLE0=Just The Death of Us - DJ-Technetium feat. 野宮あゆみ
TTITLE1=Flower Stream -Trancecore mix- - 源屋
TTITLE2=Power Stream - / REDALiCE
TTITLE3=Relax - DJ-Technetium
TTITLE4=Foughten Field - ARM
TTITLE5=maid in Japan - DJ-Technetium
TTITLE6=TEI TEC - REDALiCE
TTITLE7=wide awake - Betwixt and Between
TTITLE8=God Save The Wind - DJ-Technetium
TTITLE9=I Shot The KICHIGAI - DJ-Technetium
TTITLE10=Feel of Feeling (DJ-Technetium Remix) - REDALiCE feat. 佳織みちる
EXTD=YEAR: 2008
EXTT0=
EXTT1=
EXTT2=
EXTT3=
EXTT4=
EXTT5=
EXTT6=
EXTT7=
EXTT8=
EXTT9=
EXTT10=
PLAYORDER=
